# xmcd
#
# Track frame offsets:
#	150
#	21605
#	42932
#
# Disc length: 851 seconds
#
# Revision: 3
# Processed by: cddbd v1.5.1PL2 Copyright (c) Steve Scherf et al.
# Submitted via: EasyCDDAExtractor 5.0.6
#
DISCID=22035103
DTITLE=SistersWithVoice (SWV) - You're The One (Single)
DYEAR=1996
DGENRE=blues
TTITLE0=You'reTheOne[LPVersion](1996,SWV~SistersWithVoice)
TTITLE1=You'reTheOne[Instrumental](1996,SWV~SistersWithVoice)
TTITLE2=You'reTheOne[ACappella](1996,SWV~SistersWithVoice)
EXTD=
EXTT0=
EXTT1=
EXTT2=
PLAYORDER=
